<svg width="425" height="71" viewBox="0 0 425 71" fill="none" xmlns="http://www.w3.org/2000/svg">
<path d="M0 0.00012207V70.7566H14.1508V42.4526H50.6777V28.3018H14.1508V14.1509H50.6777V0.00012207H14.1508H0Z" fill="black"/>
<path d="M70.7734 0.00012207H56.6226V70.7566H70.7734V0.00012207Z" fill="black"/>
<path d="M76.7183 0.00012207V70.7566H90.8691H127.394V56.6057H90.8691V42.4526H127.394V28.3018H90.8691V14.1509H127.394V0.00012207H90.8691H76.7183Z" fill="black"/>
<path d="M147.492 0.00012207H133.339V70.7566H147.492H182.869V56.6057H147.492V0.00012207Z" fill="black"/>
<path d="M244.352 11.0413C241.589 7.65617 238.018 4.96875 233.637 2.9813C229.258 0.993847 223.968 0.00012207 217.767 0.00012207H188.814V70.7566H217.363C223.865 70.7566 229.35 69.6871 233.814 67.5482C238.278 65.4093 241.865 62.5864 244.577 59.082C247.29 55.5776 249.259 51.7541 250.491 47.6094C251.722 43.4647 252.337 39.3888 252.337 35.3795C252.337 30.9662 251.696 26.654 250.416 22.4404C249.135 18.2291 247.113 14.4309 244.35 11.0436L244.352 11.0413ZM235.572 42.79C234.913 45.2777 233.883 47.5727 232.478 49.6703C231.074 51.7679 229.242 53.4478 226.984 54.7101C224.726 55.9723 221.981 56.6034 218.745 56.6034H202.965V14.0477H219.918C222.798 14.0477 225.286 14.6696 227.383 15.9135C229.481 17.1574 231.204 18.812 232.556 20.8729C233.908 22.9338 234.911 25.2265 235.57 27.751C236.226 30.2755 236.556 32.816 236.556 35.3772C236.556 37.9384 236.228 40.3022 235.57 42.79H235.572Z" fill="black"/>
<path d="M265.152 0.00012207H258.077V70.7566H303.22V63.6811H265.152V0.00012207Z" fill="black"/>
<path d="M330.613 0L305.478 70.7564H313.817L320.351 52.2222H352.457L358.762 70.7564H367.333L342.198 0H330.613ZM322.706 45.1468L336.408 6.19705L350.108 45.1468H322.706Z" fill="black"/>
<path d="M418.544 38.45C414.446 35.081 410.769 34.7987 410.769 34.7987C410.769 34.7987 415.074 33.2152 418.471 29.4308C420.564 27.0968 422.294 23.4271 422.294 18.1923C422.294 14.7223 420.833 9.69169 416.608 5.85908C411.871 1.56288 406.957 0 399.496 0H370.59V70.7564H399.923C404.866 70.7564 409.679 70.0679 412.486 68.9595C415.662 67.7064 418.209 66.1137 419.853 64.3534C423.268 60.6953 425 56.36 425 51.9193C425 49.5004 424.562 43.3934 418.544 38.4477V38.45ZM377.666 7.07771H401.695C408.532 7.07771 414.762 12.3906 414.762 19.2273C414.762 26.0641 407.614 31.8359 400.777 31.8359H377.54L377.666 7.07771ZM403.724 63.6833H377.666V38.9182H403.035C409.874 38.9182 417.023 44.4629 417.023 51.2996C417.023 58.1364 410.56 63.681 403.724 63.681V63.6833Z" fill="black"/>
</svg>
