<svg width="1850" height="309" viewBox="0 0 1850 309" fill="none" xmlns="http://www.w3.org/2000/svg">
<g clip-path="url(#clip0_567_617)">
<path d="M0 0V308.31H61.66V184.98H220.82V123.32H61.66V61.66H220.82V0H61.66H0Z" fill="black"/>
<path d="M305.005 0H243.345V308.31H305.005V0Z" fill="black"/>
<path d="M327.53 0V308.31H389.19H548.34V246.65H389.19V184.98H548.34V123.32H389.19V61.66H548.34V0H389.19H327.53Z" fill="black"/>
<path d="M632.535 0H570.865V308.31H632.535H786.685V246.65H632.535V0Z" fill="black"/>
<path d="M1051.21 48.11C1039.17 33.36 1023.61 21.65 1004.52 12.99C985.44 4.33 962.39 0 935.37 0H809.21V308.31H933.61C961.94 308.31 985.84 303.65 1005.29 294.33C1024.74 285.01 1040.37 272.71 1052.19 257.44C1064.01 242.17 1072.59 225.51 1077.96 207.45C1083.32 189.39 1086 171.63 1086 154.16C1086 134.93 1083.21 116.14 1077.63 97.78C1072.05 79.43 1063.24 62.88 1051.2 48.12L1051.21 48.11ZM1012.95 186.45C1010.08 197.29 1005.59 207.29 999.47 216.43C993.35 225.57 985.37 232.89 975.53 238.39C965.69 243.89 953.73 246.64 939.63 246.64H870.87V61.21H944.74C957.29 61.21 968.13 63.92 977.27 69.34C986.41 74.76 993.92 81.97 999.81 90.95C1005.7 99.93 1010.07 109.92 1012.94 120.92C1015.8 131.92 1017.24 142.99 1017.24 154.15C1017.24 165.31 1015.81 175.61 1012.94 186.45H1012.95Z" fill="black"/>
<path d="M1132.73 -0.00976562H1101.9V308.3H1305.61V277.47H1132.73V-0.00976562Z" fill="black"/>
<path d="M1432.78 -0.00976562L1318.61 308.3H1356.95L1386.42 227.54H1529.61L1559.08 308.3H1597.43L1483.26 -0.00976562H1432.78ZM1397.68 196.71L1458.03 31.3502L1518.37 196.71H1397.68Z" fill="black"/>
<path d="M1823.74 167.53C1805.88 152.85 1789.86 151.62 1789.86 151.62C1789.86 151.62 1808.62 144.72 1823.42 128.23C1832.54 118.06 1840.08 102.07 1840.08 79.2602C1840.08 64.1402 1833.71 42.2202 1815.3 25.5202C1794.66 6.80024 1773.25 -0.00976562 1740.74 -0.00976562H1610.43V308.3H1742.6C1764.14 308.3 1785.11 305.3 1797.34 300.47C1811.18 295.01 1822.28 288.07 1829.44 280.4C1844.32 264.46 1851.87 245.57 1851.87 226.22C1851.87 215.68 1849.96 189.07 1823.74 167.52V167.53ZM1641.26 30.8302H1750.32C1780.11 30.8302 1807.26 53.9802 1807.26 83.7702C1807.26 113.56 1776.11 138.71 1746.32 138.71H1640.71L1641.26 30.8302ZM1759.16 277.48H1641.26V169.57H1756.16C1785.96 169.57 1817.11 193.73 1817.11 223.52C1817.11 253.31 1788.95 277.47 1759.16 277.47V277.48Z" fill="black"/>
</g>
<defs>
<clipPath id="clip0_567_617">
<rect width="1849.84" height="308.31" fill="white"/>
</clipPath>
</defs>
</svg>
