<svg width="1850" height="309" viewBox="0 0 1850 309" fill="none" xmlns="http://www.w3.org/2000/svg">
<g clip-path="url(#clip0_566_606)">
<path d="M1016.28 48.1198C1004.24 33.3698 988.68 21.6598 969.59 12.9998C950.51 4.33977 927.46 0.00976562 900.44 0.00976562H772.28V308.32H898.68C927.01 308.32 950.91 303.66 970.36 294.34C989.81 285.02 1005.44 272.72 1017.26 257.45C1029.08 242.18 1037.66 225.52 1043.03 207.46C1048.39 189.4 1051.07 171.64 1051.07 154.17C1051.07 134.94 1048.28 116.15 1042.7 97.7898C1037.12 79.4398 1028.31 62.8898 1016.27 48.1298L1016.28 48.1198ZM978.02 186.46C975.15 197.3 970.66 207.3 964.54 216.44C958.42 225.58 950.44 232.9 940.6 238.4C930.76 243.9 918.8 246.65 904.7 246.65H833.94V61.2198H909.81C922.36 61.2198 933.2 63.9298 942.34 69.3498C951.48 74.7698 958.99 81.9798 964.88 90.9598C970.77 99.9398 975.14 109.93 978.01 120.93C980.87 131.93 982.31 143 982.31 154.16C982.31 165.32 980.88 175.62 978.01 186.46H978.02Z" fill="black"/>
<path d="M293.27 0H231.61V308.31H293.27V0Z" fill="black"/>
<path d="M309.07 0V308.31H370.73H524.88V246.65H370.73V184.98H524.88V123.32H370.73V61.66H524.88V0H370.73H309.07Z" fill="black"/>
<path d="M602.34 0H540.67V308.31H602.34H756.49V246.65H602.34V0Z" fill="black"/>
<path d="M0 0V308.31H61.66V184.98H215.82V123.32H61.66V61.66H215.82V0H61.66H0Z" fill="black"/>
<path d="M1107.91 0H1077.08V308.31H1285.79V277.48H1107.91V0Z" fill="black"/>
<path d="M1418.76 0L1304.59 308.31H1342.93L1372.4 227.55H1515.59L1545.06 308.31H1583.41L1469.24 0H1418.76ZM1383.66 196.72L1444.01 31.36L1504.35 196.72H1383.66Z" fill="black"/>
<path d="M1821.71 167.53C1803.85 152.85 1787.83 151.62 1787.83 151.62C1787.83 151.62 1806.59 144.72 1821.39 128.23C1830.51 118.06 1838.05 102.07 1838.05 79.2602C1838.05 64.1402 1831.68 42.2202 1813.27 25.5202C1792.63 6.80024 1771.22 -0.00976562 1738.71 -0.00976562H1603.4V308.3H1740.57C1762.11 308.3 1783.08 305.3 1795.31 300.47C1809.15 295.01 1820.25 288.07 1827.41 280.4C1842.29 264.46 1849.84 245.57 1849.84 226.22C1849.84 215.68 1847.93 189.07 1821.71 167.52V167.53ZM1634.23 30.8302H1748.29C1778.08 30.8302 1805.23 53.9802 1805.23 83.7702C1805.23 113.56 1774.08 138.71 1744.29 138.71H1633.68L1634.23 30.8302ZM1757.13 277.48H1634.23V169.57H1754.13C1783.93 169.57 1815.08 193.73 1815.08 223.52C1815.08 253.31 1786.92 277.47 1757.13 277.47V277.48Z" fill="black"/>
</g>
<defs>
<clipPath id="clip0_566_606">
<rect width="1849.84" height="308.31" fill="white"/>
</clipPath>
</defs>
</svg>
