<svg width="1850" height="309" viewBox="0 0 1850 309" fill="none" xmlns="http://www.w3.org/2000/svg">
<g clip-path="url(#clip0_566_606)">
<path d="M0 -0.00976562V308.3H61.66V184.97H215.82V123.31H61.66V61.6502H215.82V-0.00976562H61.66H0Z" fill="black"/>
<path d="M295.48 -0.00976562H233.82V308.3H295.48V-0.00976562Z" fill="black"/>
<path d="M313.48 -0.00976562V308.3H375.14H529.29V246.64H375.14V184.97H529.29V123.31H375.14V61.6502H529.29V-0.00976562H375.14H313.48Z" fill="black"/>
<path d="M608.96 -0.00976562H547.29V308.3H608.96H763.11V246.64H608.96V-0.00976562Z" fill="black"/>
<path d="M1025.11 48.1002C1013.07 33.3502 997.51 21.6402 978.42 12.9802C959.34 4.32023 936.29 -0.00976562 909.27 -0.00976562H781.11V308.3H907.51C935.84 308.3 959.74 303.64 979.19 294.32C998.64 285 1014.27 272.7 1026.09 257.43C1037.91 242.16 1046.49 225.5 1051.86 207.44C1057.22 189.38 1059.9 171.62 1059.9 154.15C1059.9 134.92 1057.11 116.13 1051.53 97.7702C1045.95 79.4202 1037.14 62.8702 1025.1 48.1102L1025.11 48.1002ZM986.85 186.44C983.98 197.28 979.49 207.28 973.37 216.42C967.25 225.56 959.27 232.88 949.43 238.38C939.59 243.88 927.63 246.63 913.53 246.63H842.77V61.2002H918.64C931.19 61.2002 942.03 63.9102 951.17 69.3302C960.31 74.7502 967.82 81.9602 973.71 90.9402C979.6 99.9202 983.97 109.91 986.84 120.91C989.7 131.91 991.14 142.98 991.14 154.14C991.14 165.3 989.71 175.6 986.84 186.44H986.85Z" fill="black"/>
<path d="M1108.73 -0.00976562H1077.9V308.3H1286.61V277.47H1108.73V-0.00976562Z" fill="black"/>
<path d="M1418.78 -0.00976562L1304.61 308.3H1342.95L1372.42 227.54H1515.61L1545.08 308.3H1583.43L1469.26 -0.00976562H1418.78ZM1383.68 196.71L1444.03 31.3502L1504.37 196.71H1383.68Z" fill="black"/>
<path d="M1819.74 167.53C1801.88 152.85 1785.86 151.62 1785.86 151.62C1785.86 151.62 1804.62 144.72 1819.42 128.23C1828.54 118.06 1836.08 102.07 1836.08 79.2602C1836.08 64.1402 1829.71 42.2202 1811.3 25.5202C1790.66 6.80024 1769.25 -0.00976562 1736.74 -0.00976562H1601.43V308.3H1738.6C1760.14 308.3 1781.11 305.3 1793.34 300.47C1807.18 295.01 1818.28 288.07 1825.44 280.4C1840.32 264.46 1847.87 245.57 1847.87 226.22C1847.87 215.68 1845.96 189.07 1819.74 167.52V167.53ZM1632.26 30.8302H1746.32C1776.11 30.8302 1803.26 53.9802 1803.26 83.7702C1803.26 113.56 1772.11 138.71 1742.32 138.71H1631.71L1632.26 30.8302ZM1755.16 277.48H1632.26V169.57H1752.16C1781.96 169.57 1813.11 193.73 1813.11 223.52C1813.11 253.31 1784.95 277.47 1755.16 277.47V277.48Z" fill="black"/>
</g>
<defs>
<clipPath id="clip0_566_606">
<rect width="1849.84" height="308.31" fill="white"/>
</clipPath>
</defs>
</svg>
